<svg version="1.1" xmlns="http://www.w3.org/2000/svg" viewBox="0 0 254.8571341378348 247.75593065169846" width="254.8571341378348" height="247.75593065169846">
  <!-- svg-source:excalidraw -->
  
  <defs>
    <style>
      @font-face {
        font-family: "Virgil";
        src: url("https://excalidraw.com/Virgil.woff2");
      }
      @font-face {
        font-family: "Cascadia";
        src: url("https://excalidraw.com/Cascadia.woff2");
      }
    </style>
  </defs>
  <g stroke-linecap="round"><g transform="translate(10.623655737053582 10) rotate(0 0 113.42856270926342)"><path d="M0 0 C0 71.91, 0 143.83, 0 226.86 M0 0 C0 73.76, 0 147.52, 0 226.86" stroke="transparent" stroke-width="1" fill="none"></path></g></g><g stroke-linecap="round"><g transform="translate(10 237.75593065169846) rotate(0 117.4285670689174 0)"><path d="M0 0 C58.9 0, 117.81 0, 234.86 0 M0 0 C54.3 0, 108.59 0, 234.86 0" stroke="transparent" stroke-width="1" fill="none"></path></g></g><g stroke-linecap="round"><g stroke-opacity="0.9" fill-opacity="0.9" transform="translate(-9.467887673881137 133.6708005651002) rotate(42.39983590940861 134.0374749675915 -3.1083098518780616)"><path d="M1.41 0.92 C46.26 -0.69, 225.14 -6.65, 269.34 -7.14 M-1.27 -1.04 C43.33 -1.19, 223.74 -4, 267.98 -4.84" stroke="#000000" stroke-width="2" fill="none"></path></g></g></svg>