<svg version="1.1" xmlns="http://www.w3.org/2000/svg" viewBox="0 0 58.93332248263869 58.9333224826388" width="58.93332248263869" height="58.9333224826388">
  <!-- svg-source:excalidraw -->
  
  <defs>
    <style>
      @font-face {
        font-family: "Virgil";
        src: url("https://excalidraw.com/Virgil.woff2");
      }
      @font-face {
        font-family: "Cascadia";
        src: url("https://excalidraw.com/Cascadia.woff2");
      }
    </style>
  </defs>
  <g stroke-opacity="0.9" fill-opacity="0.9" stroke-linecap="round" transform="translate(10 10) rotate(0 19.4666612413194 19.4666612413194)"><path d="M27.8 2.66 C31.35 4.28, 35.11 8, 36.93 11.7 C38.75 15.4, 39.92 20.87, 38.7 24.88 C37.48 28.88, 33.28 33.37, 29.61 35.72 C25.95 38.07, 20.85 39.54, 16.69 38.99 C12.54 38.44, 7.6 35.63, 4.7 32.44 C1.8 29.25, -0.51 24.06, -0.69 19.85 C-0.88 15.64, 0.99 10.44, 3.59 7.17 C6.19 3.89, 10.33 0.94, 14.93 0.21 C19.52 -0.53, 28.11 1.78, 31.17 2.75 C34.22 3.72, 33.52 5.62, 33.27 6.01 M20.56 -0.71 C24.62 -0.93, 27.96 3.05, 31.06 5.86 C34.16 8.66, 38.17 12.2, 39.18 16.1 C40.2 20, 39.37 25.67, 37.15 29.27 C34.93 32.87, 30.03 36.38, 25.85 37.72 C21.67 39.05, 15.96 38.69, 12.06 37.28 C8.15 35.88, 4.22 32.82, 2.42 29.27 C0.62 25.72, 0.41 20.04, 1.25 15.99 C2.09 11.94, 4.21 7.86, 7.47 4.95 C10.72 2.05, 19.07 -0.54, 20.8 -1.44 C22.52 -2.34, 17.98 -1.16, 17.84 -0.45" stroke="#000000" stroke-width="2" fill="none"></path></g></svg>